<svg width="24" height="24" viewBox="0 0 24 24" fill="none" xmlns="http://www.w3.org/2000/svg">
<path d="M3 3L21 21M19.3636 19.3636H4.63636C4.20237 19.3636 3.78616 19.1912 3.47928 18.8844C3.1724 18.5775 3 18.1613 3 17.7273V8.72727C3 8.29328 3.1724 7.87707 3.47928 7.57019C3.78616 7.26331 4.20237 7.09091 4.63636 7.09091H7.09091M9.54545 4.63636H14.4545L16.0909 7.09091H19.3636C19.7976 7.09091 20.2138 7.26331 20.5207 7.57019C20.8276 7.87707 21 8.29328 21 8.72727V16.3691M14.6836 14.6836C14.4121 15.0805 14.0564 15.4126 13.6419 15.6564C13.2274 15.9002 12.7643 16.0497 12.2855 16.0942C11.8067 16.1387 11.324 16.0771 10.8716 15.9139C10.4193 15.7506 10.0086 15.4897 9.66853 15.1497C9.3285 14.8096 9.06758 14.3988 8.90433 13.9465C8.74108 13.4942 8.67951 13.0115 8.724 12.5327C8.7685 12.0539 8.91796 11.5908 9.16175 11.1763C9.40555 10.7618 9.73769 10.4061 10.1345 10.1345" stroke="#4D4D4D" stroke-width="1.5" stroke-linecap="round" stroke-linejoin="round"/>
</svg>
