<svg width="24" height="25" viewBox="0 0 24 25" fill="none" xmlns="http://www.w3.org/2000/svg">
<g clip-path="url(#clip0_415_1219)">
<path d="M21 21.0488V20.5988C21 19.6222 21 19.1339 20.8874 18.7345C20.604 17.7299 19.8189 16.9448 18.8143 16.6615C18.415 16.5488 17.9266 16.5488 16.95 16.5488H12.55C11.5734 16.5488 11.085 16.5488 10.6857 16.6615C9.68108 16.9448 8.89596 17.7299 8.61263 18.7345C8.5 19.1339 8.5 19.6222 8.5 20.5988V21.0488" stroke="#4D4D4D" stroke-width="1.8" stroke-linecap="round" stroke-linejoin="round"/>
<path d="M3 17.5488V15.9488C3 15.1121 3 14.6938 3.08289 14.3485C3.34624 13.2515 4.20272 12.3951 5.29966 12.1317C5.64493 12.0488 6.06328 12.0488 6.9 12.0488H7" stroke="#4D4D4D" stroke-width="1.8" stroke-linecap="round" stroke-linejoin="round"/>
<path d="M18.5 9.54883C18.5 11.4818 16.933 13.0488 15 13.0488C13.067 13.0488 11.5 11.4818 11.5 9.54883C11.5 7.61583 13.067 6.04883 15 6.04883C16.933 6.04883 18.5 7.61583 18.5 9.54883Z" stroke="#4D4D4D" stroke-width="1.8"/>
<path d="M11 4.4292C10.4137 3.59718 9.41108 3.04883 8.27273 3.04883C6.46525 3.04883 5 4.43131 5 6.13668C5 7.48115 5.9107 8.62493 7.18182 9.04883" stroke="#4D4D4D" stroke-width="1.8" stroke-linecap="round"/>
</g>
<defs>
<clipPath id="clip0_415_1219">
<rect width="24" height="24" fill="white" transform="translate(0 0.0488281)"/>
</clipPath>
</defs>
</svg>
