<svg width="56" height="18" viewBox="0 0 56 18" fill="none" xmlns="http://www.w3.org/2000/svg">
<rect width="56" height="18" rx="9" fill="url(#paint0_linear_415_1334)"/>
<path d="M16.1758 3.46094V11.1133H14.8633V3.46094H16.1758ZM7.53906 6.80078C7.53906 5.25977 8.78711 4.1582 10.3984 4.15234C12.0098 4.1582 13.252 5.25977 13.2461 6.80078C13.252 8.36523 12.0098 9.46094 10.3984 9.46094C8.78711 9.46094 7.53906 8.36523 7.53906 6.80078ZM8.81641 6.80078C8.81055 7.73828 9.49023 8.32422 10.3984 8.32422C11.2832 8.32422 11.9688 7.73828 11.9688 6.80078C11.9688 5.88672 11.2832 5.28906 10.3984 5.28906C9.49023 5.28906 8.81055 5.88672 8.81641 6.80078ZM9.16797 13.832V10.3398H10.4805V12.7773H16.4688V13.832H9.16797ZM27.3789 8.38281V9.4375H17.7227V8.38281H27.3789ZM18.1914 6.88281C20.1543 6.68945 21.4316 5.9043 21.6309 5.01953H18.6016V3.95312H26.5117V5.01953H23.4531C23.6465 5.89258 24.9121 6.68945 26.9219 6.88281L26.4648 7.91406C24.5371 7.71484 23.1133 6.94727 22.5391 5.875C21.9648 6.94727 20.5586 7.71484 18.6367 7.91406L18.1914 6.88281ZM18.8477 12.0859C18.8477 10.8555 20.2363 10.1406 22.5391 10.1406C24.8242 10.1406 26.2012 10.8555 26.207 12.0859C26.2012 13.334 24.8242 14.0312 22.5391 14.0312C20.2363 14.0312 18.8477 13.334 18.8477 12.0859ZM20.1719 12.0859C20.166 12.7012 20.998 13.0059 22.5391 13.0117C24.0566 13.0059 24.8945 12.7012 24.9062 12.0859C24.8945 11.4707 24.0566 11.1602 22.5391 11.1602C20.998 11.1602 20.166 11.4707 20.1719 12.0859ZM31.293 3.90625C32.8398 3.90625 33.9414 4.76758 33.9531 6.03906C33.9414 7.09375 33.1504 7.88477 31.9727 8.10156V8.95703C32.8574 8.9043 33.7422 8.82812 34.5625 8.71094L34.668 9.66016C32.4648 10.0527 30.0039 10.0996 28.2109 10.0938L28.0703 9.05078C28.832 9.05078 29.7227 9.04492 30.6602 9.01562V8.10742C29.4473 7.90234 28.6387 7.11133 28.6445 6.03906C28.6387 4.76758 29.7402 3.90625 31.293 3.90625ZM29.5234 13.8203V10.832H30.8242V12.7656H36.8594V13.8203H29.5234ZM29.8633 6.03906C29.8516 6.73633 30.4492 7.16992 31.293 7.17578C32.1426 7.16992 32.7168 6.73633 32.7227 6.03906C32.7168 5.32422 32.1426 4.90234 31.293 4.90234C30.4492 4.90234 29.8516 5.32422 29.8633 6.03906ZM35.1836 11.5469V3.46094H36.4844V6.88281H37.9141V7.96094H36.4844V11.5469H35.1836ZM48.1445 11.7344V12.8125H38.4648V11.7344H41.0312V9.98828H39.6133V6.53125H45.707V5.23047H39.5898V4.17578H46.9961V7.57422H40.9141V8.93359H47.2422V9.98828H45.6953V11.7344H48.1445ZM42.2969 11.7344H44.418V9.98828H42.2969V11.7344Z" fill="white"/>
<defs>
<linearGradient id="paint0_linear_415_1334" x1="56" y1="-1.05674e-06" x2="-8.60141" y2="25.5065" gradientUnits="userSpaceOnUse">
<stop stop-color="#FFCDCD"/>
<stop offset="1" stop-color="#FE6683"/>
</linearGradient>
</defs>
</svg>
