<svg width="72" height="12" viewBox="0 0 72 12" fill="none" xmlns="http://www.w3.org/2000/svg">
<path d="M5.69897 0.196193C5.82211 -0.0653978 6.17789 -0.0653978 6.30103 0.196193L7.89507 3.58252C7.94397 3.6864 8.03849 3.7584 8.14783 3.77506L11.7122 4.31808C11.9876 4.36003 12.0975 4.71479 11.8983 4.91841L9.31905 7.5543C9.23993 7.63516 9.20382 7.75166 9.2225 7.86583L9.83137 11.5878C9.87841 11.8753 9.59057 12.0945 9.34429 11.9588L6.15621 10.2015C6.05842 10.1476 5.94158 10.1476 5.84379 10.2015L2.65571 11.9588C2.40943 12.0945 2.12159 11.8753 2.16863 11.5878L2.7775 7.86583C2.79618 7.75166 2.76007 7.63516 2.68095 7.5543L0.101743 4.91841C-0.0974985 4.71479 0.0124457 4.36003 0.287791 4.31808L3.85217 3.77506C3.96151 3.7584 4.05603 3.6864 4.10493 3.58252L5.69897 0.196193Z" fill="#FE6683"/>
<path d="M20.699 0.196193C20.8221 -0.0653978 21.1779 -0.0653978 21.301 0.196193L22.8951 3.58252C22.944 3.6864 23.0385 3.7584 23.1478 3.77506L26.7122 4.31808C26.9876 4.36003 27.0975 4.71479 26.8983 4.91841L24.319 7.5543C24.2399 7.63516 24.2038 7.75166 24.2225 7.86583L24.8314 11.5878C24.8784 11.8753 24.5906 12.0945 24.3443 11.9588L21.1562 10.2015C21.0584 10.1476 20.9416 10.1476 20.8438 10.2015L17.6557 11.9588C17.4094 12.0945 17.1216 11.8753 17.1686 11.5878L17.7775 7.86583C17.7962 7.75166 17.7601 7.63516 17.681 7.5543L15.1017 4.91841C14.9025 4.71479 15.0124 4.36003 15.2878 4.31808L18.8522 3.77506C18.9615 3.7584 19.056 3.6864 19.1049 3.58252L20.699 0.196193Z" fill="#FE6683"/>
<path d="M35.699 0.196193C35.8221 -0.0653978 36.1779 -0.0653978 36.301 0.196193L37.8951 3.58252C37.944 3.6864 38.0385 3.7584 38.1478 3.77506L41.7122 4.31808C41.9876 4.36003 42.0975 4.71479 41.8983 4.91841L39.319 7.5543C39.2399 7.63516 39.2038 7.75166 39.2225 7.86583L39.8314 11.5878C39.8784 11.8753 39.5906 12.0945 39.3443 11.9588L36.1562 10.2015C36.0584 10.1476 35.9416 10.1476 35.8438 10.2015L32.6557 11.9588C32.4094 12.0945 32.1216 11.8753 32.1686 11.5878L32.7775 7.86583C32.7962 7.75166 32.7601 7.63516 32.681 7.5543L30.1017 4.91841C29.9025 4.71479 30.0124 4.36003 30.2878 4.31808L33.8522 3.77506C33.9615 3.7584 34.056 3.6864 34.1049 3.58252L35.699 0.196193Z" fill="#FE6683"/>
<path d="M50.699 0.196193C50.8221 -0.0653978 51.1779 -0.0653978 51.301 0.196193L52.8951 3.58252C52.944 3.6864 53.0385 3.7584 53.1478 3.77506L56.7122 4.31808C56.9876 4.36003 57.0975 4.71479 56.8983 4.91841L54.319 7.5543C54.2399 7.63516 54.2038 7.75166 54.2225 7.86583L54.8314 11.5878C54.8784 11.8753 54.5906 12.0945 54.3443 11.9588L51.1562 10.2015C51.0584 10.1476 50.9416 10.1476 50.8438 10.2015L47.6557 11.9588C47.4094 12.0945 47.1216 11.8753 47.1686 11.5878L47.7775 7.86583C47.7962 7.75166 47.7601 7.63516 47.681 7.5543L45.1017 4.91841C44.9025 4.71479 45.0124 4.36003 45.2878 4.31808L48.8522 3.77506C48.9615 3.7584 49.056 3.6864 49.1049 3.58252L50.699 0.196193Z" fill="#FE6683"/>
<path d="M65.699 0.196193C65.8221 -0.0653978 66.1779 -0.0653978 66.301 0.196193L67.8951 3.58252C67.944 3.6864 68.0385 3.7584 68.1478 3.77506L71.7122 4.31808C71.9876 4.36003 72.0975 4.71479 71.8983 4.91841L69.319 7.5543C69.2399 7.63516 69.2038 7.75166 69.2225 7.86583L69.8314 11.5878C69.8784 11.8753 69.5906 12.0945 69.3443 11.9588L66.1562 10.2015C66.0584 10.1476 65.9416 10.1476 65.8438 10.2015L62.6557 11.9588C62.4094 12.0945 62.1216 11.8753 62.1686 11.5878L62.7775 7.86583C62.7962 7.75166 62.7601 7.63516 62.681 7.5543L60.1017 4.91841C59.9025 4.71479 60.0124 4.36003 60.2878 4.31808L63.8522 3.77506C63.9615 3.7584 64.056 3.6864 64.1049 3.58252L65.699 0.196193Z" fill="#4D4D4D"/>
</svg>
