<svg width="27" height="24" viewBox="0 0 27 24" fill="none" xmlns="http://www.w3.org/2000/svg">
<path d="M19.2185 14C20.4858 14.9469 21.6185 17.331 21.6185 18.7999C21.6185 19.2576 21.2846 19.6286 20.8727 19.6286H20.4185M15.6185 10.1188C16.4383 9.64452 16.9899 8.7581 16.9899 7.74286C16.9899 6.72761 16.4383 5.8412 15.6185 5.36695M3.16423 19.6286H16.3013C16.7131 19.6286 17.047 19.2576 17.047 18.7999C17.047 15.9233 14.6438 13.5914 9.73274 13.5914C4.82172 13.5914 2.41846 15.9233 2.41846 18.7999C2.41846 19.2576 2.75235 19.6286 3.16423 19.6286ZM12.4756 7.74286C12.4756 9.2577 11.2476 10.4857 9.73274 10.4857C8.2179 10.4857 6.98988 9.2577 6.98988 7.74286C6.98988 6.22802 8.2179 5 9.73274 5C11.2476 5 12.4756 6.22802 12.4756 7.74286Z" stroke="#4D4D4D" stroke-width="2" stroke-linecap="round"/>
</svg>
