<svg width="108" height="22" viewBox="0 0 108 22" fill="none" xmlns="http://www.w3.org/2000/svg">
<path d="M90.2228 4.53207V5.13984H90.8306H96.684V19.6891V20.2969H97.2918H99.5386H100.146V19.6891V5.13984H106H106.608V4.53207V2.4917V1.88394H106H90.8306H90.2228V2.4917V4.53207Z" fill="#FE6683" stroke="#FE6683" stroke-width="1.21553"/>
<path d="M73.1697 15.2985L72.6248 14.947L72.3093 15.5135L71.2405 17.4324L70.9816 17.8973L71.4081 18.2153C71.9169 18.5947 72.467 18.9297 73.0574 19.2206C74.8511 20.1047 76.7691 20.5463 78.8035 20.5463C80.9695 20.5463 82.8081 20.0784 84.277 19.0968C85.0399 18.5938 85.6549 17.9523 86.1153 17.1758C86.5884 16.3782 86.8198 15.4842 86.8198 14.5097C86.8198 13.5581 86.6378 12.7275 86.2153 12.0712C85.82 11.4367 85.2231 10.8949 84.4635 10.4322C83.6563 9.94038 82.296 9.54089 80.4696 9.19996L80.4696 9.19992L80.4623 9.19865L78.3007 8.82218C78.3006 8.82218 78.3006 8.82217 78.3005 8.82216C77.6309 8.70535 77.041 8.55515 76.5282 8.37413L76.5282 8.37412L76.5238 8.37261C75.9691 8.1816 75.6118 7.95452 75.3976 7.72186C75.1958 7.5027 75.0997 7.25717 75.0997 6.95546C75.0997 6.38972 75.3892 5.89663 76.2099 5.48254C76.9382 5.11857 77.7936 4.92774 78.7913 4.92774C79.2295 4.92774 79.6861 4.96173 80.1614 5.03074L80.1614 5.03079L80.1692 5.03182C81.6961 5.23333 82.9984 5.66804 84.0897 6.32283L84.6926 6.68457L84.9633 6.03567L85.7891 4.05602L86 3.55067L85.5193 3.28847C84.9672 2.98737 84.4315 2.7338 83.9122 2.52928C82.445 1.92931 80.8077 1.6354 79.01 1.6354C77.1038 1.6354 75.4184 2.09404 73.9788 3.033C72.3452 4.08986 71.4674 5.52738 71.4674 7.31981C71.4674 8.62397 71.9392 9.70845 72.8997 10.5065C73.904 11.3518 75.5823 11.931 77.8131 12.3152C77.8133 12.3152 77.8136 12.3152 77.8138 12.3153L79.545 12.6179C80.0891 12.7205 80.5994 12.8345 81.0764 12.9595C81.8652 13.1721 82.3894 13.4487 82.7092 13.7516C83.0112 14.0377 83.1509 14.3638 83.1509 14.7647C83.1509 15.2249 83.0479 15.5945 82.8635 15.8962C82.6789 16.1985 82.3912 16.4678 81.9683 16.6931C81.5877 16.8936 81.136 17.0456 80.6055 17.1416C80.0629 17.2331 79.5393 17.2783 79.0342 17.2783C78.5314 17.2783 78.0369 17.2295 77.5503 17.1322L77.5491 17.1319C76.079 16.841 74.6196 16.2339 73.1697 15.2985Z" fill="#FE6683" stroke="#FE6683" stroke-width="1.21553"/>
<path d="M47.4595 1.64077H46.8971L46.8536 2.20143L45.5176 19.3867L45.4667 20.0416H46.1235H48.2975H48.861L48.9035 19.4797L49.7669 8.08321L55.0453 14.0202L55.2267 14.2241H55.4995H55.7424H56.0126L56.1936 14.0236L61.6808 7.94516L62.6668 19.4856L62.7143 20.0416H63.2724H65.4707H66.1321L66.0762 19.3825L64.6188 2.19718L64.5716 1.64077H64.0132H63.2967H63.0282L62.8474 1.83925L55.7178 9.66582L48.5764 1.83889L48.3957 1.64077H48.1275H47.4595Z" fill="#FE6683" stroke="#FE6683" stroke-width="1.21553"/>
<path d="M24.7065 17.7151L24.7065 17.7151L24.7111 17.7192C25.6196 18.5326 26.6723 19.1655 27.8633 19.6196L27.8669 19.6209C29.0526 20.0645 30.2258 20.291 31.3833 20.291C32.4965 20.291 33.4946 20.1866 34.3713 19.9696C36.1001 19.5416 37.5908 18.7539 38.8292 17.6022C40.804 15.7659 41.7921 13.4364 41.7921 10.6594C41.7921 8.89736 41.3369 7.2826 40.4237 5.83012L40.4237 5.8301L40.4202 5.82464C39.5275 4.43796 38.3297 3.35443 36.8376 2.57818L36.8362 2.57744C35.3062 1.78667 33.6556 1.39224 31.8934 1.39224C30.0584 1.39224 28.3532 1.80288 26.7882 2.62836L26.7877 2.62864C26.0369 3.02561 25.3535 3.50983 24.7391 4.08104C24.1241 4.65266 23.5956 5.29817 23.1542 6.01624C22.7103 6.73029 22.3685 7.51078 22.1273 8.35494L22.1273 8.35494L22.1262 8.35893C21.889 9.21123 21.776 10.1998 21.776 11.3153C21.776 12.4866 22.0408 13.6413 22.5599 14.7747L22.5599 14.7747L22.5615 14.7781C23.0884 15.9096 23.8037 16.8904 24.7065 17.7151ZM27.197 6.35315C27.7707 5.81651 28.4378 5.39558 29.2033 5.09085L29.2033 5.09086L29.2062 5.08972C29.9604 4.78513 30.8677 4.62385 31.942 4.62385C32.9568 4.62385 33.9616 4.90519 34.964 5.48866L34.964 5.48867L34.9674 5.49061C35.982 6.07255 36.7573 6.83282 37.308 7.77254L37.308 7.77254L37.3095 7.77513C37.9012 8.77371 38.1962 9.85275 38.1962 11.0238C38.1962 12.7458 37.587 14.1682 36.3582 15.3309C35.1404 16.4822 33.6645 17.0594 31.8934 17.0594C30.0728 17.0594 28.5462 16.4428 27.2778 15.2041L27.2775 15.2038C26.6872 14.6283 26.2215 13.9529 25.8796 13.1725C25.5424 12.4028 25.372 11.5754 25.372 10.6837C25.372 9.789 25.5354 8.98354 25.8539 8.25891C26.1865 7.52052 26.6342 6.88711 27.197 6.35315Z" fill="#FE6683" stroke="#FE6683" stroke-width="1.21553"/>
<path d="M2 1.64077H1.39224V2.24854V19.446V20.0537H2H4.24684H4.8546V19.446V14.2362H14.1932V19.446V20.0537H14.8009H17.0478H17.6555V19.446V2.24854V1.64077H17.0478H14.8009H14.1932V2.24854V10.9803H4.8546V2.24854V1.64077H4.24684H2Z" fill="#FE6683" stroke="#FE6683" stroke-width="1.21553"/>
</svg>
