<svg width="24" height="24" viewBox="0 0 24 24" fill="none" xmlns="http://www.w3.org/2000/svg">
<path d="M8.24997 11.65L11.65 4C12.3262 4 12.9748 4.26866 13.4531 4.74687C13.9313 5.22509 14.1999 5.87369 14.1999 6.54998V9.94996H19.0109C19.2573 9.94717 19.5014 9.99799 19.7262 10.0989C19.9511 10.1998 20.1513 10.3484 20.313 10.5343C20.4747 10.7203 20.594 10.9392 20.6627 11.1759C20.7314 11.4125 20.7479 11.6613 20.7109 11.9049L19.5379 19.5549C19.4764 19.9603 19.2705 20.3298 18.9581 20.5953C18.6457 20.8608 18.2479 21.0045 17.8379 20.9999H8.24997M8.24997 11.65V20.9999M8.24997 11.65H5.69999C5.24912 11.65 4.81673 11.8291 4.49792 12.1479C4.17911 12.4667 4 12.8991 4 13.3499V19.2999C4 19.7508 4.17911 20.1832 4.49792 20.502C4.81673 20.8208 5.24912 20.9999 5.69999 20.9999H8.24997" stroke="#4D4D4D" stroke-width="1.69999" stroke-linecap="round" stroke-linejoin="round"/>
</svg>
