<svg width="12" height="12" viewBox="0 0 12 12" fill="none" xmlns="http://www.w3.org/2000/svg">
<path d="M5.69897 0.196193C5.82211 -0.0653978 6.17789 -0.0653978 6.30103 0.196193L7.89507 3.58252C7.94397 3.6864 8.03849 3.7584 8.14783 3.77506L11.7122 4.31808C11.9876 4.36003 12.0975 4.71479 11.8983 4.91841L9.31905 7.5543C9.23993 7.63516 9.20382 7.75166 9.2225 7.86583L9.83137 11.5878C9.87841 11.8753 9.59057 12.0945 9.34429 11.9588L6.15621 10.2015C6.05842 10.1476 5.94158 10.1476 5.84379 10.2015L2.65571 11.9588C2.40943 12.0945 2.12159 11.8753 2.16863 11.5878L2.7775 7.86583C2.79618 7.75166 2.76007 7.63516 2.68095 7.5543L0.101743 4.91841C-0.0974985 4.71479 0.0124457 4.36003 0.287791 4.31808L3.85217 3.77506C3.96151 3.7584 4.05603 3.6864 4.10493 3.58252L5.69897 0.196193Z" fill="#4D4D4D"/>
</svg>
