<svg width="24" height="24" viewBox="0 0 24 24" fill="none" xmlns="http://www.w3.org/2000/svg">
<path d="M4.88889 21H18.1111C19.1543 21 20 20.1543 20 19.1111V5.88889C20 4.84568 19.1543 4 18.1111 4H4.88889C3.84568 4 3 4.84568 3 5.88889V19.1111C3 20.1543 3.84568 21 4.88889 21ZM4.88889 21L15.2778 10.6111L20 15.3333M9.61111 9.19444C9.61111 9.97685 8.97685 10.6111 8.19444 10.6111C7.41204 10.6111 6.77778 9.97685 6.77778 9.19444C6.77778 8.41204 7.41204 7.77778 8.19444 7.77778C8.97685 7.77778 9.61111 8.41204 9.61111 9.19444Z" stroke="#4D4D4D" stroke-width="1.88889" stroke-linecap="round" stroke-linejoin="round"/>
</svg>
